HIERARCHY
ROOT hip
{
	OFFSET 0.000000 0.000000 0.000000
	CHANNELS 6 Xposition Yposition Zposition Xrotation Zrotation Yrotation 
	JOINT abdomen
	{
		OFFSET 0.000000 3.422050 0.000000
		CHANNELS 3 Xrotation Zrotation Yrotation 
		JOINT chest
		{
			OFFSET 0.000000 8.486693 -0.684411
			CHANNELS 3 Xrotation Zrotation Yrotation 
			JOINT neck
			{
				OFFSET 0.000000 10.266162 -0.273764
				CHANNELS 3 Xrotation Zrotation Yrotation 
				JOINT head
				{
					OFFSET 0.000000 3.148285 0.000000
					CHANNELS 3 Xrotation Zrotation Yrotation 
					End Site
					{
						OFFSET 0.000000 3.148289 0.000000
					}
				}
			}
			JOINT lCollar
			{
				OFFSET 3.422053 6.707223 -0.821293
				CHANNELS 3 Yrotation Zrotation Xrotation 
				JOINT lShldr
				{
					OFFSET 3.285171 0.000000 0.000000
					CHANNELS 3 Zrotation Yrotation Xrotation 
					JOINT lForeArm
					{
						OFFSET 10.129278 0.000000 0.000000
						CHANNELS 3 Yrotation Zrotation Xrotation 
						JOINT lHand
						{
							OFFSET 8.486692 0.000000 0.000000
							CHANNELS 3 Zrotation Yrotation Xrotation 
							End Site
							{
								OFFSET 4.106464 0.000000 0.000000
							}
						}
					}
				}
			}
			JOINT rCollar
			{
				OFFSET -3.558935 6.707223 -0.821293
				CHANNELS 3 Yrotation Zrotation Xrotation 
				JOINT rShldr
				{
					OFFSET -3.148289 0.000000 0.000000
					CHANNELS 3 Zrotation Yrotation Xrotation 
					JOINT rForeArm
					{
						OFFSET -10.266159 0.000000 0.000000
						CHANNELS 3 Yrotation Zrotation Xrotation 
						JOINT rHand
						{
							OFFSET -8.349810 0.000000 0.000000
							CHANNELS 3 Zrotation Yrotation Xrotation 
							End Site
							{
								OFFSET -4.106464 0.000000 0.000000
							}
						}
					}
				}
			}
		}
	}
	JOINT lThigh
	{
		OFFSET 5.338403 -1.642589 1.368821
		CHANNELS 3 Xrotation Zrotation Yrotation 
		JOINT lShin
		{
			OFFSET -2.053232 -20.121670 0.000000
			CHANNELS 3 Xrotation Zrotation Yrotation 
			JOINT lFoot
			{
				OFFSET 0.000000 -19.300380 -1.231939
				CHANNELS 3 Xrotation Yrotation Zrotation 
				End Site
				{
					OFFSET 0.000000 -2.463878 4.653993
				}
			}
		}
	}
	JOINT rThigh
	{
		OFFSET -5.338403 -1.642589 1.368821
		CHANNELS 3 Xrotation Zrotation Yrotation 
		JOINT rShin
		{
			OFFSET 2.053232 -20.121670 0.000000
			CHANNELS 3 Xrotation Zrotation Yrotation 
			JOINT rFoot
			{
				OFFSET 0.000000 -19.300380 -1.231939
				CHANNELS 3 Xrotation Yrotation Zrotation 
				End Site
				{
					OFFSET 0.000000 -2.463878 4.653993
				}
			}
		}
	}
}
MOTION
Frames: 8
Frame Time: 0.033333
0.000000 43.528500 0.000000 0.000000 0.000000 0.000000 0.000000 0.000000 0.000000 0.000000 0.000000 0.000000 0.000000 0.000000 0.000000 0.000000 0.000000 0.000000 0.000000 0.000000 0.000000 0.000000 0.000000 0.000000 0.000000 0.000000 0.000000 0.000000 0.000000 0.000000 0.000000 0.000000 0.000000 0.000000 0.000000 0.000000 0.000000 0.000000 0.000000 0.000000 0.000000 0.000000 0.000000 0.000000 0.000000 0.000000 0.000000 0.000000 0.000000 0.000000 0.000000 0.000000 0.000000 0.000000 0.000000 0.000000 0.000000 0.000000 0.000000 0.000000 
0.000000 17.999722 -32.004837 -63.002171 0.000000 0.000000 48.996311 0.000000 0.000000 15.996989 0.000000 0.000000 0.000000 0.000000 0.000000 0.274519 0.000415 -0.173104 0.000000 0.000000 0.000000 -72.014603 -15.003981 -15.997408 -43.003448 -5.000933 19.998068 -0.001989 -1.000540 29.999905 0.000000 0.000000 0.000000 76.995224 25.999592 29.996204 61.996151 -5.001704 -0.000604 65.996010 0.000000 0.000000 -32.001789 10.996365 -25.001387 71.996742 0.000001 -0.000001 14.998732 -0.002847 -0.999614 -32.001732 -11.001786 22.000097 71.996742 0.000001 -0.000001 20.996786 0.000000 0.000000 
0.000000 17.999722 -32.004837 -63.002178 0.000000 0.000000 48.996311 0.000000 0.000000 15.996989 0.000000 0.000000 0.000000 0.000000 0.000000 0.274519 0.000415 -0.173104 0.000000 0.000000 0.000000 -72.014603 -15.003981 -15.997408 -43.003448 -5.000932 19.998070 -0.001989 -1.000540 29.999908 0.000000 0.000000 0.000000 76.995224 25.999592 29.996204 63.065331 -5.001882 -0.000589 65.996010 0.000000 0.000000 -32.001789 10.996365 -25.001387 71.996712 0.000116 0.570911 14.998732 -0.002847 -0.999614 -32.001732 -11.001786 22.000097 71.996719 -0.000169 -0.571263 20.996786 0.000000 0.000000 
0.000000 17.999722 -32.004837 -63.002171 0.000000 0.000000 48.996311 0.000000 0.000000 15.996989 0.000000 0.000000 0.000000 0.000000 0.000000 0.274519 0.000415 -0.173104 0.000000 0.000000 0.000000 -72.014587 -15.003979 -15.997408 -43.003445 -5.000933 19.998068 -0.001989 -1.000540 29.999905 0.000000 0.000000 0.000000 76.995224 25.999590 29.996204 64.135612 -5.002058 -0.000571 65.995995 0.000000 0.000000 -32.001785 10.996366 -25.001385 71.996681 0.000231 1.141993 14.998732 -0.002847 -0.999614 -32.001732 -11.001786 22.000097 71.996727 -0.000340 -1.142694 20.996786 0.000000 0.000000 
0.000000 17.999722 -32.004837 -63.002171 0.000000 0.000000 48.996311 0.000000 0.000000 15.996989 0.000000 0.000000 0.000000 0.000000 0.000000 0.274519 0.000415 -0.173104 0.000000 0.000000 0.000000 -72.014603 -15.003981 -15.997408 -43.003448 -5.000933 19.998068 -0.001989 -1.000540 29.999905 0.000000 0.000000 0.000000 76.995224 25.999592 29.996204 65.206833 -5.002234 -0.000549 65.996010 0.000000 0.000000 -32.001789 10.996364 -25.001385 71.996643 0.000346 1.713217 14.998732 -0.002847 -0.999614 -32.001732 -11.001786 22.000097 71.996712 -0.000510 -1.714268 20.996786 0.000000 0.000000 
0.000000 17.999722 -32.004837 -63.002171 0.000000 0.000000 48.996319 0.000000 0.000000 15.996989 0.000000 0.000000 0.000000 0.000000 0.000000 0.274519 0.000415 -0.173104 0.000000 0.000000 0.000000 -72.014603 -15.003981 -15.997408 -43.003448 -5.000932 19.998070 -0.001989 -1.000540 29.999905 0.000000 0.000000 0.000000 76.995224 25.999596 29.996204 66.278824 -5.002410 -0.000523 65.996010 0.000000 0.000000 -32.001789 10.996365 -25.001387 71.996620 0.000462 2.284555 14.998732 -0.002847 -0.999614 -32.001732 -11.001788 22.000099 71.996696 -0.000681 -2.285956 20.996786 0.000000 0.000000 
0.000000 17.999722 -32.004837 -63.002171 0.000000 0.000000 48.996307 0.000000 0.000000 15.996989 0.000000 0.000000 0.000000 0.000000 0.000000 0.274519 0.000415 -0.173104 0.000000 0.000000 0.000000 -72.014603 -15.003981 -15.997406 -43.003445 -5.000932 19.998066 -0.001989 -1.000540 29.999905 0.000000 0.000000 0.000000 76.995224 25.999590 29.996201 67.351364 -5.002586 -0.000495 65.996010 0.000000 0.000000 -32.001785 10.996365 -25.001385 71.996597 0.000578 2.855978 14.998730 -0.002847 -0.999614 -32.001732 -11.001787 22.000095 71.996689 -0.000852 -2.857730 20.996786 0.000000 0.000000 
0.000000 17.999722 -32.004837 -63.002171 0.000000 0.000000 48.996307 0.000000 0.000000 15.996989 0.000000 0.000000 0.000000 0.000000 0.000000 0.274519 0.000415 -0.173104 0.000000 0.000000 0.000000 -72.014603 -15.003981 -15.997406 -43.003448 -5.000932 19.998066 -0.001989 -1.000540 29.999905 0.000000 0.000000 0.000000 76.995224 25.999594 29.996204 68.424294 -5.002761 -0.000463 65.996010 0.000000 0.000000 -32.001785 10.996364 -25.001385 71.996567 0.000695 3.427459 14.998730 -0.002847 -0.999614 -32.001732 -11.001786 22.000097 71.996674 -0.001023 -3.429560 20.996786 0.000000 0.000000 
